<svg xmlns="http://www.w3.org/2000/svg" width="256" height="256" viewBox="0 0 100 100"><path d="M9.41 27.13L18.37 42.54L27.34 27.13L35.89 27.13L23.00 48.29L36.19 69.79L27.54 69.79L18.37 54.15L9.17 69.79L0.56 69.79L13.77 48.29L0.85 27.13L9.41 27.13ZM59.77 27.13L42.98 73.45L37.39 73.45L54.17 27.13L59.77 27.13ZM99.44 47.20L99.44 49.58Q99.44 55.84 97.27 60.58Q95.10 65.31 91.07 67.84Q87.05 70.38 81.80 70.38L81.80 70.38Q76.62 70.38 72.56 67.84Q68.50 65.31 66.29 60.62Q64.08 55.93 64.05 49.81L64.05 49.81L64.05 47.41Q64.05 41.17 66.26 36.39Q68.47 31.62 72.50 29.08Q76.53 26.55 81.74 26.55Q86.96 26.55 90.99 29.05Q95.01 31.56 97.21 36.26Q99.41 40.96 99.44 47.20L99.44 47.20ZM92.03 49.58L92.03 47.35Q92.03 40.26 89.35 36.48Q86.67 32.70 81.74 32.70L81.74 32.70Q76.94 32.70 74.23 36.46Q71.52 40.23 71.46 47.11L71.46 47.11L71.46 49.58Q71.46 56.61 74.20 60.44Q76.94 64.28 81.80 64.28L81.80 64.28Q86.72 64.28 89.38 60.53Q92.03 56.78 92.03 49.58L92.03 49.58Z" fill="#4a4a4a"></path></svg>